<svg xmlns="http://www.w3.org/2000/svg" viewBox="0 0 1024 1024" role="img" aria-labelledby="title desc">
  <title id="title">VaporHuman icon</title>
  <desc id="desc">A minimal vapor-shaped human profile mark for VaporHuman.</desc>
  <g fill="#FFFFFF">
    <path d="M 520.83 453.63 L 511.74 453.64 L 502.35 454.09 L 492.74 454.99 L 482.95 456.31 L 473.03 458.06 L 463.04 460.23 L 453.03 462.80 L 443.06 465.78 L 433.18 469.14 L 423.44 472.89 L 413.88 477.03 L 404.52 481.54 L 395.38 486.43 L 386.47 491.70 L 377.83 497.34 L 369.47 503.37 L 361.41 509.77 L 353.68 516.54 L 346.29 523.69 L 339.27 531.22 L 332.63 539.11 L 326.39 547.35 L 320.56 555.92 L 315.14 564.79 L 310.14 573.93 L 305.57 583.32 L 301.44 592.93 L 297.76 602.73 L 294.53 612.71 L 291.76 622.82 L 289.46 633.06 L 287.64 643.39 L 286.31 653.78 L 285.48 664.22 L 285.15 674.67 L 285.33 685.11 L 286.03 695.52 L 287.25 705.86 L 289.02 716.11 L 291.33 726.25 L 294.17 736.26 L 297.52 746.11 L 301.38 755.80 L 305.71 765.30 L 310.51 774.60 L 315.76 783.67 L 321.43 792.50 L 327.51 801.07 L 333.99 809.37 L 340.84 817.37 L 348.06 825.06 L 355.61 832.42 L 363.48 839.43 L 371.67 846.07 L 380.14 852.34 L 388.88 858.20 L 397.87 863.64 L 407.10 868.64 L 416.55 873.19 L 426.20 877.27 L 436.04 880.85 L 446.04 883.94 L 456.18 886.53 L 466.43 888.64 L 476.78 890.25 L 487.21 891.38 L 497.68 892.02 L 508.18 892.18 L 518.69 891.86 L 529.18 891.06 L 539.62 889.79 L 550.01 888.05 L 560.31 885.83 L 570.50 883.15 L 580.55 880.01 L 590.46 876.40 L 600.19 872.33 L 609.71 867.80 L 619.02 862.82 L 628.08 857.39 L 636.88 851.53 L 645.38 845.27 L 653.58 838.64 L 661.44 831.66 L 668.94 824.36 L 676.06 816.76 L 682.78 808.90 L 689.08 800.79 L 694.92 792.47 L 700.30 783.96 L 705.07 775.44 L 707.95 768.64 L 706.96 766.18 L 700.84 769.68 L 691.23 776.66 L 680.46 783.62 L 669.91 788.60 L 659.61 791.84 L 649.45 793.78 L 639.33 794.84 L 629.16 795.43 L 618.91 795.70 L 608.60 795.67 L 598.25 795.30 L 587.89 794.61 L 577.53 793.57 L 567.18 792.19 L 556.88 790.45 L 546.64 788.35 L 536.48 785.87 L 526.42 783.02 L 516.47 779.79 L 506.67 776.15 L 497.03 772.12 L 487.57 767.68 L 478.30 762.82 L 469.26 757.53 L 460.45 751.82 L 451.90 745.66 L 443.63 739.05 L 435.67 732.00 L 428.04 724.55 L 420.78 716.71 L 413.92 708.52 L 407.49 700.02 L 401.53 691.22 L 396.07 682.17 L 391.15 672.88 L 386.79 663.40 L 383.02 653.76 L 379.89 643.97 L 377.42 634.08 L 375.65 624.12 L 374.61 614.11 L 374.32 604.08 L 374.84 594.07 L 376.18 584.10 L 378.38 574.21 L 381.47 564.43 L 385.49 554.79 L 390.41 545.32 L 396.13 536.10 L 402.53 527.19 L 409.49 518.66 L 416.91 510.57 L 424.66 502.98 L 432.64 495.96 L 440.73 489.58 L 448.81 483.90 L 456.77 478.99 L 464.53 474.89 L 472.28 471.47 L 480.38 468.52 L 489.16 465.79 L 498.99 463.06 L 510.03 460.16 L 520.54 457.38 L 527.71 455.29 L 528.13 454.11 Z"/>
    <path d="M 528.86 135.61 L 529.71 140.51 L 532.32 149.28 L 533.05 159.40 L 529.81 169.05 L 523.68 177.85 L 516.13 185.59 L 508.08 192.27 L 499.69 198.16 L 491.07 203.56 L 482.32 208.77 L 473.55 214.09 L 464.86 219.80 L 456.39 226.08 L 448.31 232.94 L 440.79 240.39 L 434.02 248.44 L 428.16 257.10 L 423.38 266.37 L 419.85 276.19 L 417.69 286.37 L 417.03 296.72 L 417.98 307.04 L 420.69 317.14 L 425.12 326.86 L 431.02 336.06 L 438.09 344.61 L 446.04 352.40 L 454.58 359.30 L 463.42 365.17 L 472.38 370.04 L 481.43 374.16 L 490.60 377.82 L 499.89 381.30 L 509.31 384.90 L 518.87 388.89 L 528.51 393.39 L 538.11 398.39 L 547.56 403.88 L 556.76 409.86 L 565.59 416.31 L 573.93 423.23 L 581.68 430.61 L 588.73 438.45 L 594.95 446.72 L 600.24 455.43 L 604.50 464.56 L 607.61 474.11 L 609.57 483.99 L 610.44 494.12 L 610.24 504.40 L 609.01 514.75 L 606.79 525.07 L 603.63 535.28 L 599.56 545.27 L 594.61 554.96 L 588.84 564.26 L 582.27 573.07 L 574.99 581.37 L 567.21 589.24 L 559.11 596.82 L 550.92 604.21 L 542.84 611.53 L 535.09 618.91 L 527.86 626.46 L 521.37 634.29 L 515.82 642.52 L 511.43 651.28 L 508.41 660.67 L 506.95 670.82 L 507.19 681.71 L 509.00 692.98 L 512.22 704.20 L 516.71 714.94 L 522.29 724.78 L 528.82 733.35 L 536.15 740.68 L 544.13 746.98 L 552.64 752.42 L 561.52 757.19 L 570.65 761.48 L 579.95 765.43 L 589.89 768.89 L 601.21 771.54 L 613.66 773.20 L 624.13 774.05 L 629.18 774.26 L 628.10 773.40 L 621.99 770.62 L 612.42 765.38 L 602.42 758.20 L 595.28 749.84 L 593.13 741.02 L 595.44 732.40 L 601.31 724.62 L 609.87 718.33 L 620.23 714.18 L 631.50 712.73 L 643.13 713.52 L 654.75 715.31 L 666.01 716.86 L 676.55 716.93 L 686.03 714.43 L 694.20 709.43 L 700.81 702.39 L 705.65 693.79 L 708.49 684.13 L 709.14 673.88 L 709.11 663.68 L 711.04 654.08 L 713.94 644.79 L 716.50 635.59 L 717.84 626.41 L 717.44 617.27 L 717.22 608.55 L 719.99 600.74 L 726.91 594.01 L 734.26 587.49 L 737.48 580.16 L 734.70 571.61 L 728.19 562.44 L 720.61 553.32 L 713.85 544.54 L 708.55 535.67 L 705.20 526.24 L 703.78 516.07 L 703.63 505.40 L 704.04 494.45 L 704.32 483.48 L 703.76 472.73 L 702.06 462.32 L 699.32 452.24 L 695.68 442.47 L 691.25 432.99 L 686.17 423.80 L 680.54 414.87 L 674.40 406.24 L 667.78 397.92 L 660.70 389.95 L 653.20 382.35 L 645.31 375.14 L 637.06 368.35 L 628.47 362.00 L 619.58 356.12 L 610.42 350.74 L 601.01 345.88 L 591.38 341.56 L 581.58 337.79 L 571.65 334.44 L 561.66 331.36 L 551.67 328.41 L 541.75 325.44 L 531.95 322.30 L 522.34 318.84 L 512.97 314.91 L 503.92 310.36 L 495.25 305.06 L 487.01 298.84 L 479.60 291.65 L 474.62 283.74 L 473.96 275.44 L 478.54 267.15 L 486.70 259.39 L 496.30 252.73 L 505.96 247.32 L 515.49 242.70 L 524.77 238.34 L 533.71 233.70 L 542.22 228.27 L 550.17 221.53 L 557.28 213.41 L 563.06 204.27 L 567.02 194.51 L 568.66 184.53 L 567.49 174.72 L 563.17 165.44 L 556.37 156.77 L 548.13 148.69 L 539.59 141.38 L 532.51 136.33 Z"/>
  </g>
</svg>